<svg width="30" height="31" viewBox="0 0 30 31" fill="none" xmlns="http://www.w3.org/2000/svg">
<g filter="url(#filter0_d_2_671)">
<g clip-path="url(#clip0_2_671)">
<path d="M12.2499 21.1667C12.7562 21.1667 13.1666 20.7563 13.1666 20.25C13.1666 19.7438 12.7562 19.3334 12.2499 19.3334C11.7437 19.3334 11.3333 19.7438 11.3333 20.25C11.3333 20.7563 11.7437 21.1667 12.2499 21.1667Z" stroke="#2C2D35" stroke-width="2" stroke-linecap="round" stroke-linejoin="round"/>
<path d="M22.3334 21.1667C22.8397 21.1667 23.2501 20.7563 23.2501 20.25C23.2501 19.7438 22.8397 19.3334 22.3334 19.3334C21.8272 19.3334 21.4167 19.7438 21.4167 20.25C21.4167 20.7563 21.8272 21.1667 22.3334 21.1667Z" stroke="#2C2D35" stroke-width="2" stroke-linecap="round" stroke-linejoin="round"/>
<path d="M4.91675 1.91663H8.58341L11.0401 14.1908C11.1239 14.6128 11.3535 14.9919 11.6887 15.2617C12.0238 15.5315 12.4432 15.6749 12.8734 15.6666H21.7834C22.2136 15.6749 22.633 15.5315 22.9682 15.2617C23.3033 14.9919 23.5329 14.6128 23.6167 14.1908L25.0834 6.49996H9.50008" stroke="#2C2D35" stroke-width="2" stroke-linecap="round" stroke-linejoin="round"/>
</g>
</g>
<defs>
<filter id="filter0_d_2_671" x="-1" y="0" width="32" height="32" filterUnits="userSpaceOnUse" color-interpolation-filters="sRGB">
<feFlood flood-opacity="0" result="BackgroundImageFix"/>
<feColorMatrix in="SourceAlpha" type="matrix" values="0 0 0 0 0 0 0 0 0 0 0 0 0 0 0 0 0 0 127 0" result="hardAlpha"/>
<feOffset dy="4"/>
<feGaussianBlur stdDeviation="2"/>
<feComposite in2="hardAlpha" operator="out"/>
<feColorMatrix type="matrix" values="0 0 0 0 0 0 0 0 0 0 0 0 0 0 0 0 0 0 0.25 0"/>
<feBlend mode="normal" in2="BackgroundImageFix" result="effect1_dropShadow_2_671"/>
<feBlend mode="normal" in="SourceGraphic" in2="effect1_dropShadow_2_671" result="shape"/>
</filter>
<clipPath id="clip0_2_671">
<rect width="22" height="22" fill="white" transform="translate(4 1)"/>
</clipPath>
</defs>
</svg>
